<?xml version="1.0" encoding="UTF-8"?> <svg xmlns="http://www.w3.org/2000/svg" width="104" height="24" viewBox="0 0 104 24" fill="none"><path d="M13.3333 10L0 0V20L13.3333 10Z" fill="#00BBFF"></path><path d="M9.99984 4H7.33333L2 0H9.99984C15.5227 0 19.9998 4.47715 19.9998 10C19.9998 15.5228 15.5227 20 9.99984 20H2L7.33333 16H9.99984C13.3135 16 15.9998 13.3137 15.9998 10C15.9998 6.68629 13.3135 4 9.99984 4Z" fill="white"></path><path fill-rule="evenodd" clip-rule="evenodd" d="M38 12C38 16.4183 34.4183 20 30 20C25.5817 20 22 16.4183 22 12C22 7.58172 25.5817 4 30 4C34.4183 4 38 7.58172 38 12ZM34 12C34 14.2091 32.2091 16 30 16C27.7909 16 26 14.2091 26 12C26 9.79086 27.7909 8 30 8C32.2091 8 34 9.79086 34 12Z" fill="white"></path><path d="M48 4C43.5818 4 40 7.58167 40 12V24H44V12C44 9.79089 45.7909 8 48 8C50.2091 8 52 9.79089 52 12C52 14.2091 50.2091 16 48 16H45L48 20C52.4183 20 56 16.4182 56 12C56 7.58179 52.4183 4 48 4Z" fill="white"></path><path d="M69 12C69 7.58179 72.5817 4 77 4C81.4182 4 85 7.58167 85 12V20H81V12C81 9.79089 79.2091 8 77 8C74.7909 8 73 9.79089 73 12C73 14.2091 74.7909 16 77 16H80L77 20C72.5817 20 69 16.4182 69 12Z" fill="white"></path><path d="M65 4H64C60.6863 4 58 6.68628 58 10V20H62V10C62 8.89539 62.8954 8 64 8H68L65 4Z" fill="white"></path><path d="M92 4L94.75 7.66667L92.25 11L87 4H92Z" fill="white"></path><path d="M104 4H99L87 20H92L95.5 15.3333L99 20H104L98 12L104 4Z" fill="white"></path></svg> 